<svg width="69" height="71" viewBox="0 0 69 71" fill="none" xmlns="http://www.w3.org/2000/svg">
<path d="M30.0315 21.4112H39.0269M27.9607 26.6398L33.8167 11.9166H35.1749L40.9863 26.6398M54.7243 58.9959C53.7891 59.5866 52.6536 59.8928 51.4512 59.8928C47.9778 59.8928 45.1722 57.0488 45.1722 53.5266C45.1722 50.0044 47.9778 47.1167 51.4512 47.1167C52.7872 47.1167 53.9896 47.5323 55.0138 48.1886M34.4846 70H0.484619V35.4781H34.4846V70ZM68.4846 35.4781H34.4846V70H68.4846V35.4781ZM51.4735 1H17.4735V35.4781H51.4735V1ZM13.3098 53.4829H20.1231C21.8599 53.4829 23.2626 54.883 23.2626 56.6332C23.2626 58.3833 21.8599 59.8053 20.1231 59.8053H13.3098V47.1167H20.1231C21.8599 47.1167 23.2626 48.5168 23.2626 50.2888C23.2626 52.0609 21.8599 53.4829 20.1231 53.4829H13.3098V53.4829Z" stroke="#F1A1A1" stroke-width="0.5" stroke-miterlimit="10"/>
</svg>
