<svg width="57" height="98" viewBox="0 0 57 98" fill="none" xmlns="http://www.w3.org/2000/svg">
<path d="M47.7248 84.4276V0M40.4623 13.854L16.1271 22.5376L40.4623 31.7294V13.854ZM40.4623 13.854L30.2723 6.84966M47.7248 5.14829L30.2723 6.84966V17.4556M40.4623 21.4991L47.7248 22.1841M28.4846 72.0761C13.0433 72.0761 0.484619 77.6884 0.484619 84.538C0.484619 91.3877 13.0209 97 28.4846 97C43.9483 97 56.4846 91.3877 56.4846 84.538C56.4846 77.6884 43.9483 72.0761 28.4846 72.0761ZM39.8366 81.1132C35.479 81.1132 31.9706 82.682 31.9706 84.6264C31.9706 86.5708 35.5014 88.1396 39.8366 88.1396C44.1718 88.1396 47.7248 86.5266 47.7248 84.6264C47.7248 82.7262 44.1718 81.1132 39.8366 81.1132Z" stroke="#F1A1A1" stroke-width="0.5" stroke-miterlimit="10"/>
</svg>
