<svg width="87" height="71" viewBox="0 0 87 71" fill="none" xmlns="http://www.w3.org/2000/svg">
<path d="M43.4715 70H71.8495C78.1557 70 83.2628 64.8906 83.2628 58.5815C83.2628 56.0046 82.3746 53.6497 80.9313 51.717C84.3953 49.7621 86.749 46.0744 86.749 41.8091C86.749 37.9437 84.8172 34.5448 81.8861 32.4787C83.285 30.5905 84.151 28.2579 84.151 25.7254C84.151 19.7495 79.5546 14.9066 73.7369 14.3957C73.8479 13.7515 73.9367 13.1072 73.9367 12.4408C73.9367 6.13167 68.8296 1.02224 62.5234 1.02224C58.5043 1.02224 54.9737 3.08819 52.953 6.24273C54.9959 3.1104 58.5265 1.02224 62.5234 1.02224C68.8296 1.02224 73.9367 6.13167 73.9367 12.4408C73.9367 13.1072 73.8479 13.7515 73.7369 14.3957C79.5546 14.9066 84.151 19.7495 84.151 25.7254C84.151 28.2579 83.285 30.5905 81.8861 32.4787C84.8172 34.5448 86.749 37.9437 86.749 41.8091C86.749 46.0744 84.3953 49.7399 80.9313 51.717C82.3746 53.6275 83.2628 55.9824 83.2628 58.5815C83.2628 64.8906 78.1557 70 71.8495 70H43.4715ZM52.9308 70C59.237 70 64.3441 64.8906 64.3441 58.5815C64.3441 56.0046 63.456 53.6497 62.0127 51.717C65.4766 49.7621 67.8304 46.0744 67.8304 41.8091C67.8304 37.9437 65.8985 34.5448 62.9674 32.4787C64.3664 30.5905 65.2324 28.2579 65.2324 25.7254C65.2324 19.7495 60.6359 14.9066 54.8182 14.3957C54.9292 13.7515 55.0181 13.1072 55.0181 12.4408C55.0181 6.13167 49.9109 1.02224 43.6047 1.02224C49.9109 1.02224 55.0181 6.13167 55.0181 12.4408C55.0181 13.1072 54.9292 13.7515 54.8182 14.3957C60.6359 14.9066 65.2324 19.7495 65.2324 25.7254C65.2324 28.2579 64.3664 30.5905 62.9674 32.4787C65.8985 34.5448 67.8304 37.9437 67.8304 41.8091C67.8304 46.0744 65.4766 49.7399 62.0127 51.717C63.456 53.6275 64.3441 55.9824 64.3441 58.5815C64.3441 64.8906 59.237 70 52.9308 70ZM34.5673 6.22056C32.5244 3.08823 28.9938 1 24.9747 1C18.6685 1 13.5613 6.10944 13.5613 12.4185C13.5613 13.085 13.6501 13.7292 13.7612 14.3735C7.94345 14.8844 3.347 19.7273 3.347 25.7032C3.347 28.2357 4.21301 30.5683 5.61192 32.4566C2.68086 34.5226 0.749023 37.9215 0.749023 41.7869C0.749023 46.0522 3.10278 49.7177 6.56676 51.6949C5.12343 53.6054 4.23523 55.9601 4.23523 58.5593C4.23523 64.8684 9.34237 69.9779 15.6486 69.9779C9.34237 69.9779 4.23523 64.8684 4.23523 58.5593C4.23523 55.9824 5.12343 53.6276 6.56676 51.6949C3.10278 49.7399 0.749023 46.0522 0.749023 41.7869C0.749023 37.9215 2.68086 34.5226 5.61192 32.4566C4.21301 30.5683 3.347 28.2357 3.347 25.7032C3.347 19.7273 7.94345 14.8844 13.7612 14.3735C13.6501 13.7292 13.5613 13.085 13.5613 12.4185C13.5613 6.10944 18.6685 1 24.9747 1C28.9938 1 32.5244 3.06602 34.5673 6.22056V6.22056ZM43.9156 1C37.6093 1 32.5022 6.10944 32.5022 12.4185C32.5022 13.085 32.591 13.7292 32.702 14.3735C26.8843 14.8844 22.2879 19.7273 22.2879 25.7032C22.2879 28.2357 23.1539 30.5683 24.5528 32.4566C21.6217 34.5226 19.6899 37.9215 19.6899 41.7869C19.6899 46.0522 22.0436 49.7177 25.5076 51.6949C24.0643 53.6054 23.1761 55.9601 23.1761 58.5593C23.1761 64.8684 28.2832 69.9779 34.5895 69.9779C28.2832 69.9779 23.1761 64.8684 23.1761 58.5593C23.1761 55.9824 24.0643 53.6276 25.5076 51.6949C22.0436 49.7399 19.6899 46.0522 19.6899 41.7869C19.6899 37.9215 21.6217 34.5226 24.5528 32.4566C23.1539 30.5683 22.2879 28.2357 22.2879 25.7032C22.2879 19.7273 26.8843 14.8844 32.702 14.3735C32.591 13.7292 32.5022 13.085 32.5022 12.4185C32.5022 6.10944 37.6315 1 43.9156 1V1ZM54.0188 36.3664L44.2264 45.9412L54.0188 36.3664ZM14.4273 50.7174L23.3759 59.4701L14.4273 50.7174V50.7174ZM34.212 50.7174L44.0044 60.292L34.212 50.7174V50.7174ZM75.1136 35.0557L66.8755 43.0976L75.1136 35.0557ZM14.3607 25.2144L23.3315 33.9894L14.3607 25.2144ZM44.0044 35.2779L34.212 25.7032L44.0044 35.2779Z" stroke="#F1A1A1" stroke-width="0.5" stroke-miterlimit="10"/>
</svg>
