<svg width="64" height="91" viewBox="0 0 64 91" fill="none" xmlns="http://www.w3.org/2000/svg">
<path d="M14.1012 29.841C13.2111 29.841 12.5212 30.6814 12.5212 31.6767V41.1871C12.5212 42.1824 13.2333 43.0007 14.1012 43.0007M14.1012 44.8365C13.2111 44.8365 12.5212 45.6548 12.5212 46.6501V56.1605C12.5212 57.1558 13.2333 57.952 14.1012 57.952M14.1012 59.9868C13.2111 59.9868 12.5212 60.8052 12.5212 61.8005V71.333C12.5212 72.3283 13.2333 73.1245 14.1012 73.1245M5.71161 29.2438V73.6111M58.7865 29.2438V73.6111M10.8077 81.33V73.1466M42.1853 81.33V73.1466M12.0761 60.009V57.9742M40.5608 60.009V57.9742M12.0761 45.0355V43.0007M40.5608 45.0355V43.0007M12.0761 29.8631V25.7714M40.5608 29.8631V25.7714M48.038 11.8375H10.4961V25.8156M10.9412 20.3084H42.252M50.9977 11.8154V81.3079M48.4163 11.8154V81.3079M45.8349 11.8154V81.3079M53.7127 25.8377V81.3079M56.2274 25.7493V81.3079M18.2626 6.2418H43.0087M5.73388 66.3124H43.3202M5.73388 50.6533H43.209M5.73388 35.5472H43.209M8.27076 31.6767C8.27076 30.6814 8.98286 29.841 9.85075 29.841H41.6957C42.5636 29.841 43.2757 30.6814 43.2757 31.6767V41.1871C43.2757 42.1824 42.5636 43.0007 41.6957 43.0007H9.85075C8.98286 43.0007 8.27076 42.1824 8.27076 41.1871V31.6767ZM8.27076 56.1605C8.27076 57.1558 8.98286 57.952 9.85075 57.952H41.6957C42.5636 57.952 43.2757 57.1337 43.2757 56.1605V46.6501C43.2757 45.6548 42.5636 44.8365 41.6957 44.8365H9.85075C8.98286 44.8365 8.27076 45.6548 8.27076 46.6501V56.1605ZM8.27076 71.333C8.27076 72.3283 8.98286 73.1245 9.85075 73.1245H41.6957C42.5636 73.1245 43.2757 72.3283 43.2757 71.333V61.8005C43.2757 60.8052 42.5636 59.9868 41.6957 59.9868H9.85075C8.98286 59.9868 8.27076 60.8052 8.27076 61.8005V71.333ZM58.7865 25.8598V29.2438H63.7268C63.215 29.2438 62.7921 29.7083 62.7921 30.3054V41.7179C62.7921 42.3151 63.215 42.7796 63.7268 42.7796H58.7865V44.9028H63.7268C63.215 44.9028 62.7921 45.3894 62.7921 45.9645V57.3549C62.7921 57.952 63.215 58.4165 63.7268 58.4165H58.7865V60.0974H63.7268C63.215 60.0974 62.7921 60.5619 62.7921 61.1591V72.5495C62.7921 73.1245 63.215 73.6111 63.7268 73.6111H58.7865V81.33H6.69077V73.6332H0.749023C1.26086 73.6332 1.68371 73.1466 1.68371 72.5495V61.1591C1.68371 60.5619 1.26086 60.0974 0.749023 60.0974H5.68933V58.4165H0.749023C1.26086 58.4165 1.68371 57.952 1.68371 57.3549V45.9645C1.68371 45.3673 1.26086 44.9028 0.749023 44.9028H5.68933V42.7796H0.749023C1.26086 42.7796 1.68371 42.3151 1.68371 41.7179V30.3054C1.68371 29.7083 1.26086 29.2438 0.749023 29.2438H5.68933V25.8156H42.2298V11.8375H53.6459V25.8598H58.7642H58.7865ZM42.9864 4.05219H18.2626V11.8154H42.9864V4.05219ZM41.0504 1H20.4658V4.05219H41.0504V1ZM1.19412 90H63.749V81.3079H1.19412V90Z" stroke="#F1A1A1" stroke-width="0.5" stroke-miterlimit="10"/>
</svg>
